/* XPM */
static char * bat1_xpm[] = {
"20 20 7 1",
" 	c #FF00FF",
".	c #221311",
"+	c #EAABA2",
"@	c #6A403C",
"#	c #FF0000",
"$	c #422522",
"%	c #373737",
"                    ",
"                    ",
"                    ",
"       .. ..        ",
" ..    .+.+.    ..  ",
"  ...  .+.+. ....   ",
"  .@@...#@#..@$@.   ",
"  .@$@@.@@@.@@$@.   ",
"  .@$@$@@@@@$@$@.   ",
"  .@$@$@@@@@$@$@.   ",
"  .@$@@$@@@$@@$@.   ",
"  .@@$@$@@@$@$@@.   ",
"   ..@@$@@@$@$@@.   ",
"     ..@@@@.....    ",
"       .@@@.        ",
"      .@@.@@.       ",
"      .%. .%.       ",
"       .   .        ",
"                    ",
"                    "};
