/* XPM */
static char * bunny1_xpm[] = {
"20 20 6 1",
" 	c #FF00FF",
".	c #1B1B19",
"+	c #EAABA2",
"@	c #FFFFFF",
"#	c #808074",
"$	c #00E500",
"                    ",
"                    ",
"                    ",
"                    ",
"                    ",
"                    ",
"                    ",
"                    ",
"                    ",
"                    ",
"                    ",
"                    ",
"            .       ",
"           .+.      ",
"      .    .+..     ",
"     .@.....#@$.    ",
"      .########.    ",
"      .#######.     ",
"       .#...#.      ",
"        .   .       "};
