/* XPM */
static char * cat1_xpm[] = {
"20 20 8 1",
" 	c #FF00FF",
".	c #5B3A08",
"+	c #F28412",
"@	c #EAABA2",
"#	c #D77610",
"$	c #FFFFFF",
"%	c #1B1BDB",
"&	c #373737",
"                    ",
"                    ",
"                    ",
"                    ",
"                    ",
"                    ",
"                    ",
"  .            .    ",
" .+.          .@.   ",
" .#.          .@+.  ",
" .+.  .........+$%. ",
" .#. .+#+#+#+#++++..",
" .+. .+#+#+#+#+++++.",
" .#..++#+#+#+#+++...",
" .+#++++#+#+#+#+.   ",
"  ...+++....+++.    ",
"     .#.    .#.     ",
"     .+.    .+.     ",
"     .&.    .&.     ",
"      .      .      "};
