/* XPM */
static char * digit6_xpm[] = {
"20 20 4 1",
" 	c None",
".	c #FF00FF",
"+	c #000000",
"@	c #FFFFFF",
"..+++++++++++++++...",
"..+@@@@@@@@@@@@@+...",
"..+@@@@@@@@@@@@@+...",
"..+@@++++++++++++...",
"..+@@+..............",
"..+@@+..............",
"..+@@+..............",
"..+@@++++++++++++...",
"..+@@@@@@@@@@@@@+...",
"..+@@@@@@@@@@@@@+...",
"..+@@+++++++++@@+...",
"..+@@+.......+@@+...",
"..+@@+.......+@@+...",
"..+@@+.......+@@+...",
"..+@@+.......+@@+...",
"..+@@+.......+@@+...",
"..+@@+++++++++@@+...",
"..+@@@@@@@@@@@@@+...",
"..+@@@@@@@@@@@@@+...",
"..+++++++++++++++..."};
