/* XPM */
static char * digit1_xpm[] = {
"20 20 3 1",
" 	c #FF00FF",
".	c #000000",
"+	c #FFFFFF",
"  ..........        ",
"  .++++++++.        ",
"  .++++++++.        ",
"  .......++.        ",
"        .++.        ",
"        .++.        ",
"        .++.        ",
"        .++.        ",
"        .++.        ",
"        .++.        ",
"        .++.        ",
"        .++.        ",
"        .++.        ",
"        .++.        ",
"        .++.        ",
"        .++.        ",
"  .......++......   ",
"  .+++++++++++++.   ",
"  .+++++++++++++.   ",
"  ...............   "};
