/* XPM */
static char * player1_xpm[] = {
"20 20 11 1",
" 	c #FF00FF",
".	c #1B1B19",
"+	c #FDCDC9",
"@	c #808074",
"#	c #EAABA2",
"$	c #FFFFFF",
"%	c #966E0E",
"&	c #F2F2F2",
"*	c #1B1B48",
"=	c #FCA117",
"-	c #373737",
"         .          ",
" .....  .+.         ",
".@@@@@. .#@.        ",
".@@@@@. .@$%.       ",
".@@@@@. .@@@..      ",
".@@@@@. .@@@@.      ",
".@@@@@.  .@..       ",
".@@@@. ..@.&.       ",
".@@@@. .@@@...      ",
".@@@@. .@*.@@@.***= ",
" .@@@. .@**...@.**= ",
"  .@@@..@@&&. .     ",
"   .@@@.@@&&.       ",
"    .@@.@@@&.       ",
"     ...@@@@.       ",
"       .@@.@.       ",
"       .@@.@.       ",
"       .@@.@.       ",
"       .@@.@@.      ",
"       ..@-.@-.     "};
