/* XPM */
static char * zap1_xpm[] = {
"20 20 26 1",
" 	c #FF00FF",
".	c #4372E8",
"+	c #4674E9",
"@	c #4F7BEA",
"#	c #638AEC",
"$	c #6A8FED",
"%	c #6E92ED",
"&	c #4A77E9",
"*	c #537EEA",
"=	c #4C78E9",
"-	c #5C84EB",
";	c #7798EE",
">	c #6C90ED",
",	c #5F87EC",
"'	c #4D7AEA",
")	c #557FEA",
"!	c #5E86EB",
"~	c #789AEF",
"{	c #5882EB",
"]	c #678CEC",
"^	c #5680EB",
"/	c #4876E9",
"(	c #5A83EB",
"_	c #688EED",
":	c #6188EC",
"<	c #4573E8",
"                    ",
"                    ",
" ..........         ",
"  .+@........       ",
"   #$%.........     ",
"      ..........    ",
"    &*=-=;.&>,'..   ",
"   )!)'  ~~;{ @-.   ",
"    -      !   ]..  ",
"               #!.  ",
"               ]^.. ",
"              '^..  ",
"               *.   ",
"            )-@/.   ",
"   !]#   *{  *{.    ",
"    (_:   {{.=..    ",
"     $#(#</**..     ",
" /'!:........       ",
"  .....             ",
"                    "};
