/* XPM */
static char * zap2_xpm[] = {
"20 20 26 1",
" 	c #FF00FF",
".	c #4372E8",
"+	c #4876E9",
"@	c #4D7AEA",
"#	c #5E86EB",
"$	c #6188EC",
"%	c #6A8FED",
"&	c #638AEC",
"*	c #5A83EB",
"=	c #4573E8",
"-	c #537EEA",
";	c #688EED",
">	c #5882EB",
",	c #4C78E9",
"'	c #678CEC",
")	c #557FEA",
"!	c #5C84EB",
"~	c #4F7BEA",
"{	c #5680EB",
"]	c #789AEF",
"^	c #7798EE",
"/	c #4A77E9",
"(	c #6C90ED",
"_	c #5F87EC",
":	c #6E92ED",
"<	c #4674E9",
"                    ",
"  .....             ",
" +@#$........       ",
"     %&*&=+--..     ",
"    *;$   >>.,..    ",
"   #'&   ->  ->.    ",
"            )!~+.   ",
"               -.   ",
"              @{..  ",
"               '{.. ",
"               &#.  ",
"    !      #   '..  ",
"   )#)@  ]]^> ~!.   ",
"    /-,!,^./(_@..   ",
"      ..........    ",
"   &%:.........     ",
"  .<~........       ",
" ..........         ",
"                    ",
"                    "};
